<svg xmlns="http://www.w3.org/2000/svg" viewBox="0 0 128 128">
  <defs>
    <linearGradient id="grad" x1="0%" y1="0%" x2="100%" y2="100%">
      <stop offset="0%" style="stop-color:#1a73e8"/>
      <stop offset="100%" style="stop-color:#0d5bba"/>
    </linearGradient>
  </defs>

  <!-- Background circle -->
  <circle cx="64" cy="64" r="60" fill="url(#grad)"/>

  <!-- Document icon -->
  <path d="M45 25h25l20 20v58c0 3-2 5-5 5H45c-3 0-5-2-5-5V30c0-3 2-5 5-5z" fill="white"/>

  <!-- Folded corner -->
  <path d="M70 25v15c0 3 2 5 5 5h15" fill="none" stroke="#1a73e8" stroke-width="2"/>
  <path d="M70 25l20 20H75c-3 0-5-2-5-5V25z" fill="#e8f0fe"/>

  <!-- Lines representing text -->
  <rect x="50" y="55" width="30" height="3" rx="1" fill="#1a73e8"/>
  <rect x="50" y="63" width="25" height="3" rx="1" fill="#1a73e8"/>
  <rect x="50" y="71" width="28" height="3" rx="1" fill="#1a73e8"/>
  <rect x="50" y="79" width="20" height="3" rx="1" fill="#1a73e8"/>

  <!-- Arrow pointing to Drive -->
  <path d="M88 70l12 0m-4-4l4 4-4 4" fill="none" stroke="#28a745" stroke-width="3" stroke-linecap="round" stroke-linejoin="round"/>

  <!-- Small Drive icon -->
  <g transform="translate(95, 58) scale(0.25)">
    <path d="M12 0L0 20h24L12 0z" fill="#4285f4"/>
    <path d="M0 20l12 20 12-20H0z" fill="#34a853"/>
    <path d="M24 20L12 0v40l12-20z" fill="#fbbc05"/>
  </g>
</svg>
